<svg width="352" height="328" viewBox="0 0 352 328" fill="none" xmlns="http://www.w3.org/2000/svg">
<path d="M176 271.627V296L254 251.245V226.885L176 271.627Z" stroke="#2E2E2E" stroke-miterlimit="10" stroke-linecap="round" stroke-linejoin="round"/>
<path d="M98 226.885V251.245L176 296V271.627L98 226.885Z" stroke="#2E2E2E" stroke-miterlimit="10" stroke-linecap="round" stroke-linejoin="round"/>
<path d="M176.001 149.048L235.915 114.672L235.967 227.713L175.975 261.26L176.001 149.048Z" stroke="#2E2E2E" stroke-miterlimit="10" stroke-linecap="round" stroke-linejoin="round"/>
<path d="M175.974 148.996L116.086 114.672L115.969 226.08L175.974 261.26V148.996Z" stroke="#2E2E2E" stroke-miterlimit="10" stroke-linecap="round" stroke-linejoin="round"/>
<path d="M218.339 93.4482L176.105 117.692V138.89L218.378 114.634L218.339 93.4482Z" stroke="#2E2E2E" stroke-miterlimit="10" stroke-linecap="round" stroke-linejoin="round"/>
<path d="M133.661 93.4482L176.025 117.692V138.89L133.622 114.634L133.661 93.4482Z" stroke="#2E2E2E" stroke-miterlimit="10" stroke-linecap="round" stroke-linejoin="round"/>
<path d="M153.509 39.7506L153.926 39.5061C153.926 39.5061 162.649 34.5638 164.292 33.6113C168.764 31.0243 174.671 31.5649 180.956 35.1429C193.643 42.3763 203.97 60.0348 203.97 74.5015C203.97 81.5804 201.972 87.1765 197.539 89.7249C193.406 92.106 186.901 95.6645 186.901 95.6645" stroke="#2E2E2E" stroke-width="2" stroke-miterlimit="10" stroke-linecap="round" stroke-linejoin="round"/>
<path d="M180.562 97.3471C177.354 97.3471 173.808 96.2846 170.144 94.1855C157.457 86.9034 147.13 69.1257 147.13 54.5614C147.13 47.3959 149.581 42.0445 154.041 39.4919C158.5 36.9392 164.394 37.4964 170.626 41.0727C183.313 48.3548 193.64 66.1325 193.64 80.6967C193.64 87.8622 191.189 93.2137 186.73 95.7663C184.891 96.8288 182.818 97.3471 180.562 97.3471Z" stroke="#2E2E2E" stroke-width="2" stroke-miterlimit="10" stroke-linecap="round" stroke-linejoin="round"/>
<path d="M116.086 114.672L115.969 226.08L124.366 231.004V119.414L116.086 114.672Z" stroke="#2E2E2E" stroke-miterlimit="10" stroke-linecap="round" stroke-linejoin="round"/>
<path d="M124.497 119.469L124.366 230.97L132.776 235.897V124.228L124.497 119.469Z" stroke="#2E2E2E" stroke-miterlimit="10" stroke-linecap="round" stroke-linejoin="round"/>
<path d="M132.918 124.311L132.801 235.88L141.198 240.811V129.06L132.918 124.311Z" stroke="#2E2E2E" stroke-miterlimit="10" stroke-linecap="round" stroke-linejoin="round"/>
<path d="M141.331 129.15L141.2 240.882L149.61 245.819V133.919L141.331 129.15Z" stroke="#2E2E2E" stroke-miterlimit="10" stroke-linecap="round" stroke-linejoin="round"/>
<path d="M149.727 133.934L149.609 245.719L158.007 250.66V138.692L149.727 133.934Z" stroke="#2E2E2E" stroke-miterlimit="10" stroke-linecap="round" stroke-linejoin="round"/>
<path d="M157.824 138.658L157.707 250.532L166.104 255.476V143.433L157.824 138.658Z" stroke="#2E2E2E" stroke-miterlimit="10" stroke-linecap="round" stroke-linejoin="round"/>
<path d="M176.001 149.046L185.285 143.721V255.829L175.975 261.258L176.001 149.046Z" stroke="#2E2E2E" stroke-miterlimit="10" stroke-linecap="round" stroke-linejoin="round"/>
<path d="M176 149.014L185.284 143.721V256.029L176.104 261.258L176 149.014Z" stroke="#2E2E2E" stroke-miterlimit="10" stroke-linecap="round" stroke-linejoin="round"/>
<path d="M185.286 143.751L194.57 138.474V250.699L185.377 255.937L185.286 143.751Z" stroke="#2E2E2E" stroke-miterlimit="10" stroke-linecap="round" stroke-linejoin="round"/>
<path d="M194.565 138.378L203.836 133.08V245.449L194.657 250.682L194.565 138.378Z" stroke="#2E2E2E" stroke-miterlimit="10" stroke-linecap="round" stroke-linejoin="round"/>
<path d="M203.84 133.054L213.124 127.752V240.261L203.944 245.512L203.84 133.054Z" stroke="#2E2E2E" stroke-miterlimit="10" stroke-linecap="round" stroke-linejoin="round"/>
<path d="M213.123 127.712L222.407 122.406V235.134L213.214 240.388L213.123 127.712Z" stroke="#2E2E2E" stroke-miterlimit="10" stroke-linecap="round" stroke-linejoin="round"/>
<path d="M222.407 122.445L231.691 117.127V230.031L222.498 235.284L222.407 122.445Z" stroke="#2E2E2E" stroke-miterlimit="10" stroke-linecap="round" stroke-linejoin="round"/>
<path d="M168.006 81.5785C165.307 79.9459 162.868 77.9893 160.326 75.4626C159.83 74.9702 159.504 74.2446 159.491 73.6356L159.413 69.1652C159.4 68.1416 160.3 67.9213 161.134 68.7765C162.23 69.8909 163.377 70.9793 164.577 72.0418C166.441 73.6874 168.084 74.8925 169.492 75.6699C170.653 76.3048 171.5 76.6158 172.035 76.6028C172.569 76.5769 172.83 76.2012 172.817 75.4496C172.804 74.9313 172.609 74.4001 172.217 73.817C171.826 73.2469 171.161 72.4824 170.249 71.5365C169.336 70.5906 168.097 69.3596 166.545 67.8695C164.798 66.185 163.39 64.5912 162.308 63.0882C161.226 61.5851 160.43 60.1468 159.935 58.7474C159.426 57.348 159.165 55.819 159.139 54.1475C159.1 51.5819 159.791 49.9881 161.212 49.3403C162.634 48.6924 164.472 48.8608 167.367 50.1307L167.328 47.4225C167.302 46.0879 168.54 45.6215 169.714 46.2693C170.887 46.9172 172.178 48.7831 172.204 50.1177L172.257 52.774C174.578 54.1993 176.586 55.8579 178.946 58.1514C179.624 58.8122 179.95 59.8747 179.689 60.4708L178.307 63.6065C178.046 64.2025 177.303 64.0989 176.638 63.451C174.238 61.0538 172.048 59.3175 170.079 58.2161C168.984 57.6071 168.214 57.335 167.784 57.3998C167.341 57.4517 167.132 57.7756 167.145 58.3716C167.158 58.8899 167.315 59.3953 167.654 59.9006C167.98 60.406 168.54 61.0927 169.336 61.935C170.131 62.7901 171.24 63.8656 172.661 65.1873C175.529 67.9084 177.603 70.3573 178.867 72.5083C180.132 74.6592 180.784 76.9009 180.823 79.2073C180.862 81.8118 180.171 83.5351 178.75 84.3644C177.329 85.1937 175.399 85.103 172.609 83.9498L172.674 87.7981C172.7 89.1328 171.592 89.5863 170.418 88.9384C169.245 88.2905 168.084 86.632 168.071 85.2973L168.006 81.5785Z" stroke="#2E2E2E" stroke-miterlimit="10" stroke-linecap="round" stroke-linejoin="round"/>
<path d="M133.115 93.8633V104.902L116.086 114.672L115.291 216.959L98.001 226.884V251.244L176.001 295.999L254 251.244V226.884L236.763 217.347L235.915 114.672L218.873 104.578L218.743 94.6009L218.325 93.4607L202.6 84.4422C203.813 81.8637 203.969 78.43 203.969 74.8019C203.969 60.2376 193.642 42.4599 180.955 35.1778C174.671 31.5756 168.764 31.0314 164.292 33.6359C162.766 34.5299 155.125 38.8966 154.056 39.5056H154.043C154.043 39.5056 154.03 39.5056 154.03 39.5186C153.965 39.5575 153.926 39.5834 153.926 39.5834L153.508 39.8296L153.534 39.8684C149.414 42.5377 147.132 47.7207 147.132 54.5882C147.132 63.0883 150.446 72.4472 155.884 80.4161L133.115 93.8633Z" stroke="#2E2E2E" stroke-width="2" stroke-miterlimit="10" stroke-linecap="round" stroke-linejoin="round"/>
</svg>
