<svg width="352" height="328" viewBox="0 0 352 328" fill="none" xmlns="http://www.w3.org/2000/svg">
<path d="M32 208.231L32.0151 213.685L175.199 296.001L175.184 290.547L32 208.231Z" stroke="#2E2E2E" stroke-miterlimit="10" stroke-linecap="round" stroke-linejoin="round"/>
<path d="M71.0736 185.896L32.0002 208.232L175.199 290.308L320 208.278L274.128 181.992" stroke="#2E2E2E" stroke-miterlimit="10" stroke-linecap="round" stroke-linejoin="round"/>
<path d="M71.2936 190.674L50.3995 202.63L85.9759 222.556L175.852 171.799L259.341 219.14L294.917 199.214L274.143 186.968" stroke="#2E2E2E" stroke-miterlimit="10" stroke-linecap="round" stroke-linejoin="round"/>
<path d="M175.184 290.547L175.199 296.001L319.778 213.777L319.763 208.323L175.184 290.547Z" stroke="#2E2E2E" stroke-miterlimit="10" stroke-linecap="round" stroke-linejoin="round"/>
<path d="M175.7 128.911V136.586L259.023 184.568L258.993 176.089L175.7 128.911Z" stroke="#2E2E2E" stroke-miterlimit="10" stroke-linecap="round" stroke-linejoin="round"/>
<path d="M300.95 160.71L300.92 152.231L258.994 176.089L259.024 184.568L300.95 160.71Z" stroke="#2E2E2E" stroke-miterlimit="10" stroke-linecap="round" stroke-linejoin="round"/>
<path d="M85.8615 179.501L85.8917 187.98L175.701 136.586V128.911L85.8615 179.501Z" stroke="#2E2E2E" stroke-miterlimit="10" stroke-linecap="round" stroke-linejoin="round"/>
<path d="M44.2073 155.645L44.2375 164.123L85.8916 187.981L85.8614 179.502L44.2073 155.645Z" stroke="#2E2E2E" stroke-miterlimit="10" stroke-linecap="round" stroke-linejoin="round"/>
<path d="M100.921 123.368L44.208 155.644L85.862 179.501L175.702 128.911L258.995 176.089L300.921 152.232L211.595 101.075" stroke="#2E2E2E" stroke-miterlimit="10" stroke-linecap="round" stroke-linejoin="round"/>
<path d="M71.062 179.444L71.0922 190.411L106.873 210.599L106.699 176.136" stroke="#2E2E2E" stroke-miterlimit="10" stroke-linecap="round" stroke-linejoin="round"/>
<path d="M106.699 176.136L106.873 210.6L175.768 171.885" stroke="#2E2E2E" stroke-miterlimit="10" stroke-linecap="round" stroke-linejoin="round"/>
<path d="M175.767 137.154V171.884L238.449 207.183L238.116 172.706" stroke="#2E2E2E" stroke-miterlimit="10" stroke-linecap="round" stroke-linejoin="round"/>
<path d="M238.117 172.707L238.45 207.183L274.146 186.968L274.116 175.985" stroke="#2E2E2E" stroke-miterlimit="10" stroke-linecap="round" stroke-linejoin="round"/>
<path d="M231.75 191.441V174.632L200.09 156.616V173.425L231.75 191.441Z" stroke="#2E2E2E" stroke-miterlimit="10" stroke-linecap="round" stroke-linejoin="round"/>
<path d="M223.373 186.659V170.065L223.267 170.005L208.465 161.442V178.037L208.571 178.097L223.373 186.659Z" stroke="#2E2E2E" stroke-miterlimit="10" stroke-linecap="round" stroke-linejoin="round"/>
<path d="M115.377 194.151L147.037 176.135V159.326L115.377 177.342V194.151Z" stroke="#2E2E2E" stroke-miterlimit="10" stroke-linecap="round" stroke-linejoin="round"/>
<path d="M115.607 180.889L146.844 163.112V159.685L115.622 177.447V180.889H115.607Z" stroke="#2E2E2E" stroke-miterlimit="10" stroke-linecap="round" stroke-linejoin="round"/>
<path d="M155.836 172.705L169.655 164.837V148.028L155.836 155.896V172.705Z" stroke="#2E2E2E" stroke-miterlimit="10" stroke-linecap="round" stroke-linejoin="round"/>
<path d="M101.026 113.004V123.234L136.22 143.462L136.632 109.183" stroke="#2E2E2E" stroke-miterlimit="10" stroke-linecap="round" stroke-linejoin="round"/>
<path d="M136.234 109.259V143.458L211.594 101.071L211.34 66.5586L136.234 109.259Z" stroke="#2E2E2E" stroke-miterlimit="10" stroke-linecap="round" stroke-linejoin="round"/>
<path d="M115.249 114.143L115.265 120.923L217.445 62.9442L217.43 56.1641L115.249 114.143Z" stroke="#2E2E2E" stroke-miterlimit="10" stroke-linecap="round" stroke-linejoin="round"/>
<path d="M73.5799 90.2744L73.595 97.0546L115.249 120.912L115.234 114.132L73.5799 90.2744Z" stroke="#2E2E2E" stroke-miterlimit="10" stroke-linecap="round" stroke-linejoin="round"/>
<path d="M73.5944 90.5377L115.248 114.395L217.624 56.175L176.308 32.002L73.5944 90.5377Z" stroke="#2E2E2E" stroke-miterlimit="10" stroke-linecap="round" stroke-linejoin="round"/>
<path d="M141.337 131.327L172.997 113.311V96.502L141.337 114.518V131.327Z" stroke="#2E2E2E" stroke-miterlimit="10" stroke-linecap="round" stroke-linejoin="round"/>
<path d="M149.711 126.339L164.619 118.047V101.288L149.711 109.828V126.339Z" stroke="#2E2E2E" stroke-miterlimit="10" stroke-linecap="round" stroke-linejoin="round"/>
<path d="M186.768 107.497L200.587 99.6289V82.835L186.768 90.7029V107.497Z" stroke="#2E2E2E" stroke-miterlimit="10" stroke-linecap="round" stroke-linejoin="round"/>
<path d="M279.799 231.151V236.515L315.738 216.175V210.6L279.799 231.151Z" stroke="#2E2E2E" stroke-miterlimit="10" stroke-linecap="round" stroke-linejoin="round"/>
<path d="M259.34 219.141L279.799 231.151L315.811 210.601L294.916 199.214L259.34 219.141Z" stroke="#2E2E2E" stroke-miterlimit="10" stroke-linecap="round" stroke-linejoin="round"/>
<path d="M71.2939 231.097V236.297L35.5443 215.625V210.501L71.2939 231.097Z" stroke="#2E2E2E" stroke-miterlimit="10" stroke-linecap="round" stroke-linejoin="round"/>
<path d="M85.9766 222.557L71.4673 231.033L35.7178 210.601L50.4001 202.63L85.9766 222.557Z" stroke="#2E2E2E" stroke-miterlimit="10" stroke-linecap="round" stroke-linejoin="round"/>
<path d="M186.297 265.232C198.484 264.01 210.156 260.732 219.56 255.382C243.917 241.524 243.917 219.068 219.56 205.209C205.514 197.222 186.448 193.84 168.154 195.062" stroke="#2E2E2E" stroke-miterlimit="10" stroke-linecap="round" stroke-linejoin="round"/>
<path d="M150.269 197.819C143.42 199.548 136.994 202.007 131.37 205.196C107.012 219.054 107.012 241.51 131.37 255.369C141.575 261.18 154.457 264.548 167.747 265.487" stroke="#2E2E2E" stroke-miterlimit="10" stroke-linecap="round" stroke-linejoin="round"/>
<path d="M170.678 201.172L168.183 195.256L165.688 189.34L157.932 193.512L150.176 197.7L160.427 199.443L170.678 201.172Z" stroke="#2E2E2E" stroke-miterlimit="10" stroke-linecap="round" stroke-linejoin="round"/>
<path d="M167.76 265.636L168.274 271.716L177.271 268.438L186.267 265.144L176.756 262.358L167.261 259.571L167.76 265.636Z" stroke="#2E2E2E" stroke-miterlimit="10" stroke-linecap="round" stroke-linejoin="round"/>
<path d="M150.706 243.818C151.053 242.909 150.948 241.523 150.675 240.689C149.678 239.631 147.092 239.288 142.647 239.527C137.461 239.81 135.753 238.692 134.724 235.995C133.711 233.328 133.681 231.674 139.064 230.571C144.673 229.423 146.457 227.963 144.522 225.981C144.28 225.758 144.038 225.549 143.766 225.326C143.705 225.281 143.66 225.251 143.6 225.206H143.615C143.055 224.744 142.435 224.312 141.77 223.895C140.198 222.912 137.204 221.541 137.597 220.84C138.172 219.812 139.034 218.784 140.077 217.83C141.075 216.906 142.33 215.982 143.69 215.222C144.628 214.701 148.105 215.625 150.343 215.982C151.295 216.131 152.263 216.251 153.231 216.34H153.216C153.306 216.355 153.397 216.355 153.488 216.37C153.941 216.4 154.395 216.429 154.848 216.459C158.825 216.564 160.337 214.999 159.641 211.631C158.976 208.398 161.577 207.682 166.233 206.997C170.951 206.311 173.46 206.684 175.32 209.456C176.908 211.825 178.601 212.987 180.718 213.032C182.139 212.808 184.362 212.242 185.647 211.646C188.867 210.186 190.5 207.131 196.442 209.619C202.399 212.108 202.686 211.884 199.874 216.832C198.604 219.067 201.22 221.198 205.347 221.243C206.391 221.257 207.464 221.302 208.447 221.153C214.464 220.304 215.009 222.643 216.233 225.057C217.549 227.665 216.475 228.961 211.985 229.975C204.153 231.718 203.442 234.028 210.17 237.113C214.812 239.229 212.665 240.823 210.79 242.73C208.568 244.593 207.071 246.337 201.673 244.921C193.841 242.865 190.515 244.265 191.256 249.034C191.679 251.761 190.122 252.908 185.435 253.4C181.096 253.862 177.165 254.622 175.819 251.179C175.592 250.613 175.048 250.077 174.564 249.555C172.644 247.484 168.123 247.097 165.175 248.736C158.659 252.387 158.87 252.133 152.293 250.211C145.777 248.304 149.844 246.098 150.706 243.818Z" stroke="#2E2E2E" stroke-miterlimit="10" stroke-linecap="round" stroke-linejoin="round"/>
<path d="M175.457 244.132C162.021 244.132 151.13 237.934 151.13 230.289C151.13 222.643 162.021 216.445 175.457 216.445C188.893 216.445 199.784 222.643 199.784 230.289C199.784 237.934 188.893 244.132 175.457 244.132Z" stroke="#2E2E2E" stroke-miterlimit="10" stroke-linecap="round" stroke-linejoin="round"/>
<path d="M175.698 234.119C172.133 234.119 169.242 232.471 169.242 230.438C169.242 228.406 172.133 226.758 175.698 226.758C179.264 226.758 182.154 228.406 182.154 230.438C182.154 232.471 179.264 234.119 175.698 234.119Z" stroke="#2E2E2E" stroke-miterlimit="10" stroke-linecap="round" stroke-linejoin="round"/>
<path d="M44.1874 155.943L100.625 123.235V113.573L73.625 97.0925V90.8411L175.764 32.3975L217.113 56.1236V63.9527L211.437 66.9721V101.071L301.128 151.958V161.067L275.152 176.44V182.133L319.764 207.753V213.446L175.199 296L31.9999 213.923V208.23L70.1638 186.118V179.856L44.1874 163.914V155.943Z" stroke="#2E2E2E" stroke-width="2" stroke-miterlimit="10" stroke-linecap="round" stroke-linejoin="round"/>
</svg>
