<svg width="127" height="127" viewBox="0 0 127 127" fill="none" xmlns="http://www.w3.org/2000/svg">
<g filter="url(#filter0_bdd_10_7146)">
<rect x="13.3384" y="31.2296" width="101.344" height="101.344" rx="50.6722" transform="rotate(-15 13.3384 31.2296)" fill="#8A8CCE" fill-opacity="0.64" shape-rendering="crispEdges"/>
<path d="M97.2139 91.0889C95.0405 91.6713 94.2769 92.994 94.5363 94.6575L96.1358 94.2289C96.1094 93.4347 96.4403 92.8615 97.6052 92.5494C98.7701 92.2373 99.3433 92.5682 99.5203 93.2289C99.7067 93.9244 99.3664 94.4628 98.2015 94.7749L97.2453 95.0311L97.6273 96.4568L98.5835 96.2006C99.9571 95.8326 100.587 96.1669 100.783 96.8971C100.969 97.5926 100.6 98.2319 99.2265 98.6C97.8529 98.968 97.2136 98.5989 96.8068 97.7761L95.2072 98.2047C95.8516 99.9142 97.2184 100.703 99.6178 100.06C102.017 99.4175 102.806 98.0507 102.406 96.5555C102.173 95.6861 101.547 95.0897 100.496 94.924C101.137 94.3238 101.32 93.5479 101.097 92.7133C100.71 91.2703 99.3872 90.5066 97.2139 91.0889ZM107.013 98.0788C108.282 97.7387 109.172 96.8855 109.532 95.7267L110.106 97.1012L111.323 96.7751L109.739 90.8636C109.259 89.0728 107.826 88.2454 105.653 88.8278C103.357 89.4427 102.556 90.8316 102.865 92.3328L104.603 91.8669C104.504 91.1481 104.86 90.5309 106.025 90.2187C107.208 89.9019 107.913 90.3092 108.174 91.2829L108.346 91.9262L106.608 92.3921C103.843 93.1328 103.067 94.4776 103.542 96.251C103.97 97.8506 105.205 98.5633 107.013 98.0788ZM106.814 96.6413C105.98 96.8649 105.363 96.5086 105.167 95.7783C104.929 94.8916 105.362 94.142 106.962 93.7134L108.7 93.2476L108.784 93.5605C109.129 94.8471 108.327 96.236 106.814 96.6413ZM118.878 94.7507L120.79 94.2382L116.336 90.5494L118.113 85.6381L116.27 86.1319L114.867 90.2161L113.65 90.5422L112.723 87.0823L111.158 87.5016L113.488 96.1949L115.053 95.7756L114.032 91.9679L115.232 91.6465L118.878 94.7507ZM124.044 93.5155C125.313 93.1754 126.203 92.3221 126.563 91.1633L127.136 92.5378L128.353 92.2117L126.769 86.3002C126.29 84.5094 124.857 83.6821 122.683 84.2644C120.388 84.8794 119.586 86.2682 119.895 87.7694L121.634 87.3035C121.535 86.5847 121.891 85.9675 123.056 85.6553C124.238 85.3385 124.944 85.7458 125.205 86.7195L125.377 87.3628L123.638 87.8287C120.874 88.5694 120.097 89.9142 120.573 91.6876C121.001 93.2872 122.236 94 124.044 93.5155ZM123.845 92.0779C123.011 92.3016 122.393 91.9452 122.198 91.2149C121.96 90.3282 122.393 89.5787 123.992 89.1501L125.731 88.6842L125.815 88.9971C126.16 90.2838 125.358 91.6726 123.845 92.0779ZM131.021 82.0304C128.847 82.6127 128.084 83.9355 128.343 85.599L129.943 85.1704C129.916 84.3762 130.247 83.803 131.412 83.4909C132.577 83.1787 133.15 83.5097 133.327 84.1704C133.514 84.8658 133.173 85.4042 132.008 85.7164L131.052 85.9726L131.434 87.3983L132.39 87.1421C133.764 86.774 134.394 87.1084 134.59 87.8386C134.776 88.5341 134.407 89.1734 133.033 89.5414C131.66 89.9095 131.02 89.5404 130.614 88.7176L129.014 89.1462C129.658 90.8557 131.025 91.6448 133.425 91.0019C135.824 90.359 136.613 88.9922 136.213 87.4969C135.98 86.6276 135.354 86.0312 134.303 85.8655C134.944 85.2653 135.127 84.4894 134.903 83.6548C134.517 82.2117 133.194 81.4481 131.021 82.0304ZM140.82 89.0203C142.089 88.6802 142.979 87.8269 143.339 86.6682L143.912 88.0426L145.13 87.7165L143.546 81.8051C143.066 80.0142 141.633 79.1869 139.459 79.7693C137.164 80.3842 136.362 81.7731 136.672 83.2742L138.41 82.8084C138.311 82.0896 138.667 81.4723 139.832 81.1602C141.014 80.8434 141.72 81.2507 141.981 82.2244L142.153 82.8677L140.414 83.3335C137.65 84.0743 136.874 85.419 137.349 87.1925C137.777 88.7921 139.012 89.5048 140.82 89.0203ZM140.621 87.5828C139.787 87.8064 139.169 87.45 138.974 86.7198C138.736 85.8331 139.169 85.0835 140.769 84.6549L142.507 84.189L142.591 84.502C142.936 85.7886 142.134 87.1775 140.621 87.5828ZM144.221 80.1705L147.003 79.4251L148.95 86.6927L150.515 86.2734L148.568 79.0058L151.35 78.2604L150.968 76.8347L143.839 78.7448L144.221 80.1705ZM154.605 85.1777L157.821 84.3158C160.446 83.6124 161.261 82.2015 160.767 80.3585C160.273 78.5155 158.863 77.7009 156.237 78.4044L154.585 78.8469L153.84 76.0651L152.275 76.4844L154.605 85.1777ZM156.706 79.8068C158.219 79.4015 158.902 79.796 159.168 80.7871C159.433 81.7781 159.039 82.4615 157.526 82.8668L155.787 83.3327L154.967 80.2727L156.706 79.8068ZM100.025 116.516C102.442 115.868 103.6 113.862 102.91 111.289L102.733 110.628C102.039 108.038 100.055 106.892 97.6209 107.544C95.2042 108.192 94.0459 110.198 94.7354 112.771L94.9125 113.432C95.6066 116.023 97.5907 117.168 100.025 116.516ZM99.6242 115.021C98.1811 115.407 97.0127 114.733 96.5468 112.994L96.3698 112.333C95.8992 110.577 96.5611 109.431 98.0216 109.04C99.4647 108.653 100.633 109.327 101.099 111.066L101.276 111.727C101.747 113.483 101.085 114.629 99.6242 115.021ZM109.236 114.048C111.671 113.395 112.816 111.411 112.145 108.908L111.968 108.247C111.283 105.691 109.365 104.584 107.14 105.18C105.992 105.488 105.143 106.144 104.714 107.116C104.529 105.73 104.724 104.858 105.324 104.176C106.233 103.187 107.993 103.218 109.564 102.127L109.187 100.718C107.026 102.043 105.56 101.858 104.298 103.128C102.907 104.544 103.025 106.86 103.667 109.26L103.938 110.268C104.827 113.589 106.767 114.709 109.236 114.048ZM107.28 106.745C108.705 106.363 109.896 107.05 110.334 108.685L110.511 109.345C110.958 111.015 110.296 112.161 108.836 112.552C107.427 112.93 106.22 112.247 105.763 110.543L105.553 109.761C105.183 108.239 105.871 107.123 107.28 106.745ZM119.178 111.384C121.143 110.857 122.225 108.983 121.507 106.306L121.33 105.645C120.608 102.95 118.756 101.881 116.792 102.407C115.54 102.743 114.675 103.478 114.313 104.562L113.821 103.353L112.604 103.679L115.865 115.849L117.43 115.43L116.233 110.962C117.041 111.546 118.048 111.686 119.178 111.384ZM118.36 110C117.074 110.345 115.878 109.64 115.422 107.936L115.212 107.154C114.804 105.493 115.506 104.355 116.758 104.019C118.131 103.651 119.216 104.292 119.696 106.083L119.873 106.744C120.362 108.569 119.751 109.628 118.36 110ZM126.525 109.415C127.794 109.075 128.684 108.222 129.044 107.063L129.618 108.437L130.835 108.111L129.251 102.2C128.771 100.409 127.338 99.5816 125.165 100.164C122.869 100.779 122.068 102.168 122.377 103.669L124.115 103.203C124.016 102.484 124.372 101.867 125.537 101.555C126.72 101.238 127.425 101.645 127.686 102.619L127.858 103.262L126.12 103.728C123.355 104.469 122.579 105.814 123.054 107.587C123.482 109.187 124.717 109.9 126.525 109.415ZM126.326 107.978C125.492 108.201 124.875 107.845 124.679 107.115C124.441 106.228 124.874 105.478 126.474 105.05L128.212 104.584L128.296 104.897C128.641 106.183 127.839 107.572 126.326 107.978ZM129.926 100.565L132.708 99.8198L134.656 107.087L136.22 106.668L134.273 99.4005L137.055 98.6551L136.673 97.2294L129.544 99.1395L129.926 100.565ZM146.221 103.988L147.786 103.569L145.457 94.8758L143.892 95.2951L144.842 98.842L140.495 100.007L139.545 96.4598L137.98 96.8791L140.31 105.572L141.874 105.153L140.878 101.432L145.224 100.268L146.221 103.988ZM150.048 102.963L153.264 102.101C155.889 101.398 156.704 99.9869 156.21 98.1439C155.716 96.3009 154.306 95.4864 151.68 96.1898L150.028 96.6324L149.283 93.8505L147.718 94.2698L150.048 102.963ZM158.219 100.774L159.784 100.354L157.455 91.6609L155.89 92.0802L158.219 100.774ZM152.149 97.5922C153.662 97.1869 154.345 97.5815 154.611 98.5725C154.876 99.5636 154.482 100.247 152.969 100.652L151.23 101.118L150.41 98.0581L152.149 97.5922ZM167.955 98.1648L169.52 97.7455L167.191 89.0522L165.174 89.5926L163.586 95.4221L163.11 97.4691L161.279 90.6362L159.714 91.0555L162.044 99.7488L164.061 99.2084L165.648 93.3789L166.124 91.3319L167.955 98.1648ZM163.164 88.9759C164.694 88.5659 165.355 87.4195 164.955 85.9243L163.633 86.2784C163.876 87.1825 163.57 87.7115 162.875 87.8979C162.214 88.0749 161.685 87.7695 161.443 86.8654L160.087 87.2287C160.487 88.724 161.634 89.3858 163.164 88.9759ZM111.889 120.286C109.716 120.868 108.952 122.191 109.211 123.854L110.811 123.426C110.785 122.631 111.116 122.058 112.28 121.746C113.445 121.434 114.019 121.765 114.196 122.426C114.382 123.121 114.042 123.659 112.877 123.972L111.92 124.228L112.302 125.653L113.259 125.397C114.632 125.029 115.262 125.364 115.458 126.094C115.644 126.789 115.275 127.429 113.902 127.797C112.528 128.165 111.889 127.796 111.482 126.973L109.882 127.401C110.527 129.111 111.894 129.9 114.293 129.257C116.692 128.614 117.481 127.247 117.081 125.752C116.848 124.883 116.222 124.286 115.172 124.121C115.812 123.52 115.995 122.745 115.772 121.91C115.385 120.467 114.062 119.703 111.889 120.286ZM119.478 127.719L123.129 126.74C125.476 126.111 126.176 124.899 125.757 123.334C125.529 122.482 124.876 121.856 123.796 121.717C124.414 121.104 124.594 120.385 124.403 119.672C124.012 118.211 122.799 117.511 120.452 118.14L117.148 119.025L119.478 127.719ZM122.123 122.985C123.375 122.649 123.904 122.955 124.099 123.685C124.304 124.45 123.999 124.979 122.747 125.315L120.661 125.874L120.036 123.544L122.123 122.985ZM120.834 119.566C122.103 119.226 122.61 119.519 122.792 120.197C122.974 120.875 122.681 121.382 121.412 121.722L119.673 122.188L119.095 120.032L120.834 119.566ZM131.678 124.599C134.094 123.951 135.253 121.945 134.563 119.372L134.386 118.711C133.692 116.121 131.708 114.975 129.274 115.627C126.857 116.275 125.699 118.281 126.388 120.854L126.565 121.515C127.259 124.106 129.243 125.251 131.678 124.599ZM131.277 123.104C129.834 123.49 128.665 122.816 128.2 121.077L128.023 120.416C127.552 118.66 128.214 117.514 129.674 117.123C131.117 116.736 132.286 117.411 132.752 119.149L132.929 119.81C133.399 121.566 132.737 122.712 131.277 123.104ZM143.286 121.339L144.851 120.92L142.521 112.227L140.957 112.646L141.907 116.193L137.56 117.358L136.61 113.811L135.045 114.23L137.375 122.923L138.939 122.504L137.942 118.783L142.289 117.619L143.286 121.339ZM150.627 119.521C153.044 118.874 154.202 116.868 153.513 114.294L153.336 113.634C152.641 111.043 150.657 109.898 148.223 110.55C145.806 111.197 144.648 113.204 145.338 115.777L145.515 116.437C146.209 119.028 148.193 120.174 150.627 119.521ZM150.226 118.026C148.783 118.413 147.615 117.738 147.149 116L146.972 115.339C146.501 113.583 147.163 112.436 148.624 112.045C150.067 111.658 151.235 112.333 151.701 114.072L151.878 114.732C152.349 116.488 151.687 117.635 150.226 118.026ZM161.714 116.402L163.626 115.889L159.172 112.2L160.949 107.289L159.106 107.783L157.704 111.867L156.486 112.193L155.559 108.733L153.995 109.152L156.324 117.846L157.889 117.427L156.869 113.619L158.068 113.297L161.714 116.402Z" fill="white"/>
</g>
<defs>
<filter id="filter0_bdd_10_7146" x="-10.6616" y="-19.0002" width="208.36" height="184.042" filterUnits="userSpaceOnUse" color-interpolation-filters="sRGB">
<feFlood flood-opacity="0" result="BackgroundImageFix"/>
<feGaussianBlur in="BackgroundImage" stdDeviation="12"/>
<feComposite in2="SourceAlpha" operator="in" result="effect1_backgroundBlur_10_7146"/>
<feColorMatrix in="SourceAlpha" type="matrix" values="0 0 0 0 0 0 0 0 0 0 0 0 0 0 0 0 0 0 127 0" result="hardAlpha"/>
<feOffset dy="8"/>
<feGaussianBlur stdDeviation="12"/>
<feComposite in2="hardAlpha" operator="out"/>
<feColorMatrix type="matrix" values="0 0 0 0 0.0916667 0 0 0 0 0.0916667 0 0 0 0 0.0916667 0 0 0 0.32 0"/>
<feBlend mode="normal" in2="effect1_backgroundBlur_10_7146" result="effect2_dropShadow_10_7146"/>
<feColorMatrix in="SourceAlpha" type="matrix" values="0 0 0 0 0 0 0 0 0 0 0 0 0 0 0 0 0 0 127 0" result="hardAlpha"/>
<feOffset dy="4"/>
<feGaussianBlur stdDeviation="2"/>
<feComposite in2="hardAlpha" operator="out"/>
<feColorMatrix type="matrix" values="0 0 0 0 0.0901961 0 0 0 0 0.0901961 0 0 0 0 0.0901961 0 0 0 0.2 0"/>
<feBlend mode="normal" in2="effect2_dropShadow_10_7146" result="effect3_dropShadow_10_7146"/>
<feBlend mode="normal" in="SourceGraphic" in2="effect3_dropShadow_10_7146" result="shape"/>
</filter>
</defs>
</svg>
