<svg width="61" height="60" viewBox="0 0 61 60" fill="none" xmlns="http://www.w3.org/2000/svg">
<path d="M60 44.7333V56.52C60.0004 57.3639 59.6806 58.1766 59.1053 58.794C58.53 59.4114 57.7419 59.7876 56.9 59.8467C55.4433 59.9467 54.2533 60 53.3333 60C23.8767 60 0 36.1233 0 6.66667C0 5.74667 0.05 4.55667 0.153333 3.1C0.212408 2.25815 0.588604 1.47004 1.20601 0.894696C1.82342 0.319356 2.63608 -0.000381444 3.48 8.55265e-07H15.2667C15.6801 -0.000417781 16.079 0.152863 16.3858 0.430068C16.6925 0.707273 16.8853 1.08861 16.9267 1.5C17.0033 2.26667 17.0733 2.87667 17.14 3.34C17.8024 7.96308 19.16 12.4594 21.1667 16.6767C21.4833 17.3433 21.2767 18.14 20.6767 18.5667L13.4833 23.7067C17.8815 33.9548 26.0485 42.1218 36.2967 46.52L41.43 39.34C41.6398 39.0467 41.9459 38.8363 42.295 38.7455C42.644 38.6547 43.0139 38.6894 43.34 38.8433C47.5567 40.8462 52.0519 42.2004 56.6733 42.86C57.1367 42.9267 57.7467 43 58.5067 43.0733C58.9175 43.1155 59.298 43.3086 59.5745 43.6153C59.851 43.922 60.0038 44.3204 60.0033 44.7333H60Z" fill="#8A8CCE"/>
</svg>
