<svg width="352" height="328" viewBox="0 0 352 328" fill="none" xmlns="http://www.w3.org/2000/svg">
<path d="M260.362 212.569L290.949 197.223V211.111L260.888 226.782" stroke="#2E2E2E" stroke-miterlimit="10" stroke-linecap="round" stroke-linejoin="round"/>
<path d="M268.938 208.233L290.948 197.219V169.469L268.938 180.469V208.233Z" stroke="#2E2E2E" stroke-miterlimit="10" stroke-linecap="round" stroke-linejoin="round"/>
<path d="M260.363 212.57L268.94 208.278V180.527L260.363 184.806" stroke="#2E2E2E" stroke-miterlimit="10" stroke-linecap="round" stroke-linejoin="round"/>
<path d="M268.427 172.647L290.949 161.687V133.613L268.427 144.883V172.647Z" stroke="#2E2E2E" stroke-miterlimit="10" stroke-linecap="round" stroke-linejoin="round"/>
<path d="M260.363 176.705L268.428 172.683V144.919L260.363 148.955" stroke="#2E2E2E" stroke-miterlimit="10" stroke-linecap="round" stroke-linejoin="round"/>
<path d="M267.762 136.715L290.944 125.121V97.3711L267.762 108.965V136.715Z" stroke="#2E2E2E" stroke-miterlimit="10" stroke-linecap="round" stroke-linejoin="round"/>
<path d="M260.359 140.467L267.763 136.769V109.005L260.359 112.703" stroke="#2E2E2E" stroke-miterlimit="10" stroke-linecap="round" stroke-linejoin="round"/>
<path d="M195.238 235.176L172.716 246.338" stroke="#2E2E2E" stroke-miterlimit="10" stroke-linecap="round" stroke-linejoin="round"/>
<path d="M105.205 285.252L60.0801 262.672L59.999 138.5L105.205 162.171V285.252Z" stroke="#2E2E2E" stroke-miterlimit="10" stroke-linecap="round" stroke-linejoin="round"/>
<path d="M172.715 189.166L190.26 180.379V151.198L172.715 159.985" stroke="#2E2E2E" stroke-miterlimit="10" stroke-linecap="round" stroke-linejoin="round"/>
<path d="M177.962 157.365V186.533" stroke="#2E2E2E" stroke-miterlimit="10" stroke-linecap="round" stroke-linejoin="round"/>
<path d="M215.44 245.502L195.076 235.311L195.238 109.112L215.44 117.278V245.502Z" stroke="#2E2E2E" stroke-miterlimit="10" stroke-linecap="round" stroke-linejoin="round"/>
<path d="M215.44 254.5V245.503L195.076 235.312V244.491L215.44 254.5Z" stroke="#2E2E2E" stroke-miterlimit="10" stroke-linecap="round" stroke-linejoin="round"/>
<path d="M260.361 223.259L215.264 245.394V117.171L260.361 95.0352V223.259Z" stroke="#2E2E2E" stroke-miterlimit="10" stroke-linecap="round" stroke-linejoin="round"/>
<path d="M127.578 162.696L105.204 162.17V285.237L127.578 285.885V162.696Z" stroke="#2E2E2E" stroke-miterlimit="10" stroke-linecap="round" stroke-linejoin="round"/>
<path d="M60.0781 271.524L105.189 294.604V285.237L60.0781 262.777V271.524Z" stroke="#2E2E2E" stroke-miterlimit="10" stroke-linecap="round" stroke-linejoin="round"/>
<path d="M127.577 295.305L105.19 294.603V285.236L127.577 285.938V295.305Z" stroke="#2E2E2E" stroke-miterlimit="10" stroke-linecap="round" stroke-linejoin="round"/>
<path d="M172.715 233.717L190.692 224.715V197.221L172.715 206.223" stroke="#2E2E2E" stroke-miterlimit="10" stroke-linecap="round" stroke-linejoin="round"/>
<path d="M178.702 230.518L179.484 230.127V203.321" stroke="#2E2E2E" stroke-miterlimit="10" stroke-linecap="round" stroke-linejoin="round"/>
<path d="M91.499 124L59.999 138.5L104.935 162.17L127.309 162.696L172.42 139.265L152.811 130.276L194.969 109.113L215.171 117.278L290.68 79.6077L227.2 57.7422L131.732 104.5" stroke="#2E2E2E" stroke-miterlimit="10" stroke-linecap="round" stroke-linejoin="round"/>
<path d="M172.689 263L127.578 285.783L127.578 162.697L172.689 139.266V263Z" stroke="#2E2E2E" stroke-miterlimit="10" stroke-linecap="round" stroke-linejoin="round"/>
<path d="M172.689 272.605L127.578 295.307V285.94L172.689 263.021V272.605Z" stroke="#2E2E2E" stroke-miterlimit="10" stroke-linecap="round" stroke-linejoin="round"/>
<path d="M260.362 223.259V231.6L215.5 254.499L215.453 245.057" stroke="#2E2E2E" stroke-miterlimit="10" stroke-linecap="round" stroke-linejoin="round"/>
<path d="M127.578 170.39L172.689 147.769" stroke="#2E2E2E" stroke-miterlimit="10" stroke-linecap="round" stroke-linejoin="round"/>
<path d="M249.695 143.705V116.427L226.701 127.94V155.218L249.695 143.705Z" stroke="#2E2E2E" stroke-miterlimit="10" stroke-linecap="round" stroke-linejoin="round"/>
<path d="M250.465 182.495V155.217L227.471 166.73V194.008L250.465 182.495Z" stroke="#2E2E2E" stroke-miterlimit="10" stroke-linecap="round" stroke-linejoin="round"/>
<path d="M250.465 220.504V193.227L227.471 204.74V232.018L250.465 220.504Z" stroke="#2E2E2E" stroke-miterlimit="10" stroke-linecap="round" stroke-linejoin="round"/>
<path d="M237.867 122.353V149.63" stroke="#2E2E2E" stroke-miterlimit="10" stroke-linecap="round" stroke-linejoin="round"/>
<path d="M238.973 160.967V188.245" stroke="#2E2E2E" stroke-miterlimit="10" stroke-linecap="round" stroke-linejoin="round"/>
<path d="M238.973 198.909V226.187" stroke="#2E2E2E" stroke-miterlimit="10" stroke-linecap="round" stroke-linejoin="round"/>
<path d="M162.34 184.781V157.503L139.346 169.016V196.294L162.34 184.781Z" stroke="#2E2E2E" stroke-miterlimit="10" stroke-linecap="round" stroke-linejoin="round"/>
<path d="M163.123 223.571V196.293L140.129 207.806V235.084L163.123 223.571Z" stroke="#2E2E2E" stroke-miterlimit="10" stroke-linecap="round" stroke-linejoin="round"/>
<path d="M163.123 261.59V234.312L140.129 245.826V273.09L163.123 261.59Z" stroke="#2E2E2E" stroke-miterlimit="10" stroke-linecap="round" stroke-linejoin="round"/>
<path d="M150.517 163.426V190.704" stroke="#2E2E2E" stroke-miterlimit="10" stroke-linecap="round" stroke-linejoin="round"/>
<path d="M151.622 202.054V229.318" stroke="#2E2E2E" stroke-miterlimit="10" stroke-linecap="round" stroke-linejoin="round"/>
<path d="M151.622 239.996V267.274" stroke="#2E2E2E" stroke-miterlimit="10" stroke-linecap="round" stroke-linejoin="round"/>
<path d="M195.075 244.491L172.688 256V246.299L195.075 235.312V244.491Z" stroke="#2E2E2E" stroke-miterlimit="10" stroke-linecap="round" stroke-linejoin="round"/>
<path d="M290.949 79.6074V205.226" stroke="#2E2E2E" stroke-miterlimit="10" stroke-linecap="round" stroke-linejoin="round"/>
<path d="M66.7422 191.31V164.896L98.5425 180.809V207.034" stroke="#2E2E2E" stroke-miterlimit="10" stroke-linecap="round" stroke-linejoin="round"/>
<path d="M66.7949 191.31L98.4738 207.034" stroke="#2E2E2E" stroke-miterlimit="10" stroke-linecap="round" stroke-linejoin="round"/>
<path d="M80.2158 171.644V197.963" stroke="#2E2E2E" stroke-miterlimit="10" stroke-linecap="round" stroke-linejoin="round"/>
<path d="M98.5425 232.95V261.712L66.7422 245.799V217.226" stroke="#2E2E2E" stroke-miterlimit="10" stroke-linecap="round" stroke-linejoin="round"/>
<path d="M66.7949 217.226L98.4738 232.95" stroke="#2E2E2E" stroke-miterlimit="10" stroke-linecap="round" stroke-linejoin="round"/>
<path d="M80.2158 223.893V252.102" stroke="#2E2E2E" stroke-miterlimit="10" stroke-linecap="round" stroke-linejoin="round"/>
<path d="M100.915 126.567L99.1754 126.148L83.5854 121.343C79.3507 119.886 76.2894 115.89 74.9273 110.073L69.8835 88.5721C67.1458 76.897 72.0143 60.7273 80.7533 52.5211L96.8423 37.4042C101.333 33.1931 106.215 31.5734 110.558 32.8691L127.173 37.9846" stroke="#2E2E2E" stroke-width="2" stroke-miterlimit="10" stroke-linecap="round" stroke-linejoin="round"/>
<path d="M102.829 126.795C101.79 126.795 100.765 126.647 99.7674 126.35C95.3979 125.027 92.2152 120.992 90.7992 114.958L85.7554 93.4574C83.0177 81.7823 87.8997 65.6126 96.6252 57.4063L112.714 42.2895C117.218 38.0513 122.1 36.4452 126.483 37.7679C130.853 39.0906 134.036 43.1263 135.452 49.1595L140.496 70.6606C143.233 82.2952 138.378 98.4243 129.693 106.644C129.895 110.342 131.217 112.745 132.323 114.149C132.889 114.864 133.119 115.876 132.93 116.983C132.728 118.252 132.067 119.358 131.163 119.952C128.574 121.667 126.052 122.152 123.665 121.397C121.224 120.614 119.552 118.67 118.54 117.118L113.537 121.828C110.057 125.095 106.349 126.795 102.829 126.795Z" stroke="#2E2E2E" stroke-width="2" stroke-miterlimit="10" stroke-linecap="round" stroke-linejoin="round"/>
<path d="M109.615 104.484C109.48 104.484 109.332 104.47 109.197 104.443C108.091 104.227 107.35 103.242 107.215 101.798L106.338 92.5253C106.284 92.0124 106.122 91.8099 106.082 91.7829L100.215 90.1497C99.4331 89.9338 98.8398 89.3129 98.57 88.3951C98.0845 86.8159 98.57 84.6699 99.7164 83.2797L105.65 76.2341C106.082 75.7212 106.392 74.9384 106.473 74.1826L107.484 64.0462C107.687 62.0351 108.873 60.2265 110.303 59.7406C111.166 59.4571 112.016 59.6596 112.636 60.3344L117.181 65.2474C117.221 65.2744 117.316 65.2474 117.464 65.1529L123.964 60.5234C124.881 59.862 125.92 59.8215 126.716 60.4019C127.835 61.2117 128.199 63.0339 127.606 64.9505L124.49 75.0329C124.275 75.7482 124.248 76.5041 124.436 76.963L127.444 84.238C127.956 85.4932 127.794 87.2478 126.999 88.719C126.392 89.8528 125.542 90.5817 124.612 90.7841L118.138 92.1068C117.95 92.1473 117.532 92.4578 117.181 93.1461L112.542 102.27C111.8 103.66 110.721 104.484 109.615 104.484Z" stroke="#2E2E2E" stroke-miterlimit="10" stroke-linecap="round" stroke-linejoin="round"/>
<path d="M215.5 254L195 244.5L173.5 255.5L173 272.5L127.5 295L105.5 294.5L60 271.5L60.0811 138.632L91 124L83 121.5C78.7654 120.042 76.2914 115.443 74.9293 109.626L69.8855 88.1385C67.1478 76.4634 72.0163 60.2938 80.7553 52.0875L96.8442 36.9706C101.335 32.7595 106.217 31.1398 110.56 32.4355C111.983 32.8738 127.208 37.3077 127.134 37.605C131.153 39.1301 134.093 43.0308 135.428 48.7267L140.472 70.2277C142.926 80.688 141.079 93.8613 133.999 102.58L227 58L290.5 79.5V211.122L261 227L260.5 231.5L215.5 254Z" stroke="#2E2E2E" stroke-width="2" stroke-miterlimit="10" stroke-linecap="round" stroke-linejoin="round"/>
</svg>
