<svg width="127" height="127" viewBox="0 0 127 127" fill="none" xmlns="http://www.w3.org/2000/svg">
<g filter="url(#filter0_bdd_10_7146)">
<rect x="13.3384" y="31.2296" width="101.344" height="101.344" rx="50.6722" transform="rotate(-15 13.3384 31.2296)" fill="#8A8CCE" fill-opacity="0.64" shape-rendering="crispEdges"/>
<path d="M41.4932 55.8577C39.3198 56.4401 38.5562 57.7628 38.8156 59.4263L40.4151 58.9977C40.3887 58.2035 40.7196 57.6303 41.8845 57.3182C43.0494 57.0061 43.6226 57.337 43.7996 57.9977C43.986 58.6931 43.6457 59.2316 42.4808 59.5437L41.5246 59.7999L41.9066 61.2256L42.8628 60.9694C44.2364 60.6014 44.8664 60.9357 45.0621 61.6659C45.2484 62.3614 44.8793 63.0007 43.5058 63.3688C42.1322 63.7368 41.4929 63.3677 41.0861 62.5449L39.4865 62.9735C40.1309 64.683 41.4977 65.4721 43.8971 64.8292C46.2964 64.1863 47.0856 62.8195 46.6849 61.3243C46.452 60.4549 45.8263 59.8585 44.7756 59.6928C45.4161 59.0926 45.5995 58.3167 45.3759 57.4821C44.9892 56.0391 43.6665 55.2754 41.4932 55.8577ZM51.2925 62.8476C52.5618 62.5075 53.4512 61.6543 53.8116 60.4955L54.3849 61.87L55.6019 61.5439L54.018 55.6324C53.5381 53.8416 52.1052 53.0142 49.9318 53.5966C47.6368 54.2115 46.8349 55.6004 47.144 57.1016L48.8826 56.6357C48.7832 55.9169 49.1396 55.2997 50.3045 54.9875C51.4868 54.6707 52.1923 55.078 52.4532 56.0517L52.6255 56.695L50.8869 57.1609C48.1224 57.9016 47.346 59.2464 47.8212 61.0198C48.2498 62.6194 49.4843 63.3321 51.2925 62.8476ZM51.0937 61.4101C50.2591 61.6337 49.6419 61.2774 49.4462 60.5471C49.2086 59.6604 49.6414 58.9108 51.2409 58.4822L52.9796 58.0164L53.0634 58.3293C53.4082 59.6159 52.6063 61.0048 51.0937 61.4101ZM63.157 59.5195L65.0695 59.007L60.615 55.3182L62.3924 50.4069L60.5494 50.9007L59.1467 54.9849L57.9296 55.311L57.0025 51.8511L55.4377 52.2704L57.7671 60.9637L59.3319 60.5444L58.3116 56.7367L59.5113 56.4153L63.157 59.5195ZM68.3233 58.2843C69.5925 57.9442 70.482 57.0909 70.8424 55.9321L71.4156 57.3066L72.6327 56.9805L71.0487 51.069C70.5689 49.2782 69.1359 48.4509 66.9626 49.0332C64.6676 49.6482 63.8657 51.037 64.1748 52.5382L65.9134 52.0723C65.814 51.3535 66.1704 50.7363 67.3353 50.4241C68.5176 50.1073 69.223 50.5146 69.4839 51.4883L69.6563 52.1316L67.9176 52.5975C65.1532 53.3382 64.3768 54.683 64.852 56.4564C65.2806 58.056 66.5151 58.7688 68.3233 58.2843ZM68.1245 56.8467C67.2899 57.0703 66.6727 56.714 66.477 55.9837C66.2394 55.097 66.6721 54.3475 68.2717 53.9189L70.0104 53.453L70.0942 53.7659C70.439 55.0526 69.6371 56.4414 68.1245 56.8467ZM75.3001 46.7992C73.1267 47.3815 72.363 48.7043 72.6224 50.3678L74.222 49.9392C74.1956 49.145 74.5265 48.5718 75.6914 48.2597C76.8563 47.9475 77.4295 48.2785 77.6065 48.9392C77.7929 49.6346 77.4526 50.173 76.2877 50.4852L75.3314 50.7414L75.7135 52.1671L76.6697 51.9109C78.0433 51.5428 78.6733 51.8772 78.8689 52.6074C79.0553 53.3029 78.6862 53.9422 77.3126 54.3102C75.9391 54.6783 75.2998 54.3092 74.893 53.4864L73.2934 53.915C73.9378 55.6245 75.3046 56.4136 77.704 55.7707C80.1033 55.1278 80.8925 53.761 80.4918 52.2657C80.2589 51.3964 79.6332 50.8 78.5825 50.6343C79.223 50.0341 79.4064 49.2582 79.1828 48.4236C78.7961 46.9805 77.4734 46.2169 75.3001 46.7992ZM85.0994 53.7891C86.3686 53.449 87.2581 52.5957 87.6185 51.437L88.1917 52.8114L89.4088 52.4853L87.8248 46.5739C87.345 44.783 85.912 43.9557 83.7387 44.5381C81.4437 45.153 80.6418 46.5419 80.9509 48.043L82.6895 47.5772C82.5901 46.8584 82.9465 46.2411 84.1114 45.929C85.2937 45.6122 85.9991 46.0195 86.26 46.9932L86.4324 47.6365L84.6937 48.1023C81.9293 48.8431 81.1529 50.1878 81.628 51.9613C82.0567 53.5609 83.2912 54.2736 85.0994 53.7891ZM84.9006 52.3516C84.066 52.5752 83.4487 52.2188 83.2531 51.4886C83.0155 50.6019 83.4482 49.8523 85.0478 49.4237L86.7865 48.9578L86.8703 49.2708C87.2151 50.5574 86.4132 51.9463 84.9006 52.3516ZM88.5006 44.9393L91.2824 44.1939L93.2298 51.4615L94.7946 51.0422L92.8472 43.7746L95.6291 43.0292L95.2471 41.6035L88.1186 43.5136L88.5006 44.9393ZM98.8839 49.9465L102.1 49.0846C104.726 48.3812 105.54 46.9703 105.047 45.1273C104.553 43.2843 103.142 42.4697 100.516 43.1732L98.8647 43.6157L98.1193 40.8339L96.5545 41.2532L98.8839 49.9465ZM100.985 44.5756C102.498 44.1703 103.181 44.5648 103.447 45.5559C103.713 46.5469 103.318 47.2303 101.805 47.6356L100.067 48.1015L99.2467 45.0415L100.985 44.5756ZM44.3041 81.2846C46.7209 80.637 47.8791 78.6309 47.1896 76.0577L47.0126 75.397C46.3184 72.8064 44.3344 71.6608 41.9002 72.3131C39.4835 72.9606 38.3252 74.9668 39.0147 77.54L39.1918 78.2007C39.8859 80.7913 41.87 81.9368 44.3041 81.2846ZM43.9035 79.7893C42.4604 80.176 41.292 79.5014 40.8261 77.7628L40.6491 77.1021C40.1785 75.346 40.8404 74.1997 42.3009 73.8083C43.744 73.4216 44.9124 74.0962 45.3782 75.8349L45.5553 76.4956C46.0258 78.2516 45.364 79.398 43.9035 79.7893ZM53.5157 78.8164C55.9498 78.1641 57.0953 76.1801 56.4245 73.6764L56.2474 73.0157C55.5626 70.4598 53.6446 69.3525 51.4191 69.9488C50.2716 70.2563 49.4225 70.9124 48.9935 71.8846C48.8086 70.4992 49.0036 69.6271 49.6034 68.9446C50.5124 67.9556 52.2725 67.9871 53.8434 66.8953L53.4661 65.487C51.3052 66.8114 49.8394 66.6265 48.5771 67.8965C47.1863 69.3127 47.3038 71.6292 47.9467 74.0286L48.2169 75.037C49.1068 78.3578 51.0468 79.4779 53.5157 78.8164ZM51.559 71.514C52.9847 71.1319 54.1752 71.8193 54.6131 73.4536L54.7901 74.1143C55.2373 75.7834 54.5755 76.9298 53.115 77.3211C51.7067 77.6985 50.4989 77.0158 50.0423 75.3119L49.8327 74.5295C49.4621 73.0076 50.1507 71.8913 51.559 71.514ZM63.4574 76.1525C65.4221 75.626 66.504 73.7522 65.7866 71.0746L65.6095 70.4139C64.8874 67.719 63.0356 66.6499 61.0709 67.1763C59.8191 67.5117 58.9538 68.2467 58.5922 69.3313L58.1003 68.1214L56.8832 68.4475L60.1444 80.6181L61.7092 80.1988L60.5119 75.7305C61.3207 76.315 62.3273 76.4553 63.4574 76.1525ZM62.6395 74.769C61.3529 75.1138 60.1578 74.4091 59.7012 72.7052L59.4916 71.9228C59.0838 70.2617 59.7851 69.1234 61.0369 68.788C62.4105 68.42 63.4953 69.061 63.9752 70.8519L64.1522 71.5126C64.6414 73.3382 64.0305 74.3963 62.6395 74.769ZM70.8045 74.1838C72.0738 73.8437 72.9632 72.9905 73.3236 71.8317L73.8969 73.2062L75.1139 72.88L73.53 66.9686C73.0501 65.1778 71.6172 64.3504 69.4438 64.9328C67.1488 65.5477 66.3469 66.9366 66.656 68.4378L68.3947 67.9719C68.2952 67.2531 68.6516 66.6359 69.8165 66.3237C70.9988 66.0069 71.7043 66.4142 71.9652 67.3879L72.1375 68.0312L70.3989 68.4971C67.6344 69.2378 66.858 70.5826 67.3332 72.356C67.7618 73.9556 68.9963 74.6683 70.8045 74.1838ZM70.6057 72.7463C69.7711 72.9699 69.1539 72.6135 68.9582 71.8833C68.7206 70.9966 69.1534 70.247 70.7529 69.8184L72.4916 69.3526L72.5755 69.6655C72.9202 70.9521 72.1183 72.341 70.6057 72.7463ZM74.2057 65.334L76.9876 64.5886L78.9349 71.8562L80.4997 71.4369L78.5524 64.1693L81.3342 63.4239L80.9522 61.9982L73.8237 63.9083L74.2057 65.334ZM90.5005 68.7572L92.0652 68.338L89.7359 59.6446L88.1711 60.0639L89.1215 63.6108L84.7748 64.7755L83.8244 61.2286L82.2596 61.6479L84.589 70.3412L86.1538 69.9219L85.1568 66.2012L89.5035 65.0365L90.5005 68.7572ZM94.3269 67.732L97.5434 66.8701C100.169 66.1666 100.983 64.7557 100.49 62.9127C99.9957 61.0697 98.5848 60.2552 95.9594 60.9586L94.3077 61.4012L93.5623 58.6193L91.9975 59.0386L94.3269 67.732ZM102.499 65.5423L104.063 65.1231L101.734 56.4297L100.169 56.849L102.499 65.5423ZM96.4284 62.361C97.941 61.9557 98.6244 62.3503 98.89 63.3413C99.1555 64.3324 98.761 65.0158 97.2483 65.4211L95.5097 65.887L94.6897 62.8269L96.4284 62.361ZM112.234 62.9336L113.799 62.5143L111.47 53.821L109.453 54.3614L107.866 60.1909L107.389 62.2379L105.558 55.405L103.994 55.8243L106.323 64.5176L108.34 63.9772L109.927 58.1477L110.404 56.1007L112.234 62.9336ZM107.443 53.7447C108.973 53.3347 109.635 52.1883 109.234 50.6931L107.913 51.0472C108.155 51.9513 107.85 52.4803 107.154 52.6667C106.493 52.8437 105.964 52.5383 105.722 51.6342L104.366 51.9975C104.767 53.4928 105.913 54.1546 107.443 53.7447ZM56.1684 85.0543C53.995 85.6367 53.2314 86.9594 53.4908 88.623L55.0903 88.1944C55.0639 87.4001 55.3948 86.827 56.5597 86.5148C57.7246 86.2027 58.2978 86.5336 58.4748 87.1943C58.6612 87.8898 58.3209 88.4282 57.156 88.7403L56.1998 88.9966L56.5818 90.4223L57.5381 90.166C58.9116 89.798 59.5416 90.1323 59.7373 90.8626C59.9236 91.558 59.5545 92.1973 58.181 92.5654C56.8074 92.9334 56.1681 92.5643 55.7613 91.7416L54.1617 92.1702C54.8061 93.8796 56.1729 94.6688 58.5723 94.0259C60.9717 93.383 61.7608 92.0161 61.3601 90.5209C61.1272 89.6516 60.5015 89.0552 59.4508 88.8895C60.0913 88.2892 60.2747 87.5133 60.0511 86.6788C59.6644 85.2357 58.3417 84.472 56.1684 85.0543ZM63.7571 92.4875L67.4083 91.5092C69.7555 90.8802 70.4556 89.6677 70.0363 88.1029C69.808 87.251 69.1556 86.6245 68.0748 86.4855C68.6933 85.8726 68.8733 85.1535 68.6823 84.4406C68.2909 82.9801 67.0784 82.2801 64.7312 82.909L61.4278 83.7942L63.7571 92.4875ZM66.402 87.7537C67.6539 87.4182 68.183 87.7237 68.3786 88.4539C68.5836 89.219 68.2782 89.748 67.0263 90.0835L64.9399 90.6425L64.3156 88.3127L66.402 87.7537ZM65.1132 84.3347C66.3825 83.9946 66.8895 84.2874 67.0712 84.9655C67.2529 85.6435 66.9602 86.1506 65.6909 86.4907L63.9523 86.9565L63.3746 84.8006L65.1132 84.3347ZM75.9569 89.3677C78.3737 88.7201 79.5319 86.714 78.8424 84.1407L78.6654 83.4801C77.9712 80.8894 75.9871 79.7439 73.553 80.3962C71.1363 81.0437 69.978 83.0498 70.6675 85.6231L70.8445 86.2838C71.5387 88.8744 73.5228 90.0199 75.9569 89.3677ZM75.5563 87.8724C74.1132 88.2591 72.9448 87.5845 72.4789 85.8458L72.3019 85.1852C71.8313 83.4291 72.4932 82.2827 73.9537 81.8914C75.3968 81.5047 76.5652 82.1793 77.031 83.918L77.2081 84.5787C77.6786 86.3347 77.0167 87.4811 75.5563 87.8724ZM87.5653 86.1081L89.1301 85.6888L86.8007 76.9955L85.2359 77.4148L86.1863 80.9617L81.8397 82.1264L80.8893 78.5795L79.3245 78.9988L81.6539 87.6921L83.2187 87.2728L82.2217 83.5521L86.5683 82.3874L87.5653 86.1081ZM94.9063 84.2902C97.3231 83.6426 98.4813 81.6365 97.7918 79.0633L97.6148 78.4026C96.9207 75.812 94.9366 74.6664 92.5024 75.3187C90.0857 75.9662 88.9274 77.9724 89.6169 80.5456L89.794 81.2063C90.4881 83.7969 92.4722 84.9424 94.9063 84.2902ZM94.5057 82.7949C93.0626 83.1816 91.8942 82.507 91.4283 80.7684L91.2513 80.1077C90.7808 78.3516 91.4426 77.2053 92.9031 76.8139C94.3462 76.4272 95.5146 77.1018 95.9805 78.8405L96.1575 79.5012C96.628 81.2572 95.9662 82.4036 94.5057 82.7949ZM105.993 81.1704L107.906 80.6579L103.451 76.9692L105.229 72.0578L103.386 72.5516L101.983 76.6358L100.766 76.9619L99.8387 73.502L98.2739 73.9213L100.603 82.6146L102.168 82.1953L101.148 78.3877L102.347 78.0662L105.993 81.1704Z" fill="white"/>
</g>
<defs>
<filter id="filter0_bdd_10_7146" x="-10.6616" y="-19.0002" width="172.121" height="180.121" filterUnits="userSpaceOnUse" color-interpolation-filters="sRGB">
<feFlood flood-opacity="0" result="BackgroundImageFix"/>
<feGaussianBlur in="BackgroundImage" stdDeviation="12"/>
<feComposite in2="SourceAlpha" operator="in" result="effect1_backgroundBlur_10_7146"/>
<feColorMatrix in="SourceAlpha" type="matrix" values="0 0 0 0 0 0 0 0 0 0 0 0 0 0 0 0 0 0 127 0" result="hardAlpha"/>
<feOffset dy="8"/>
<feGaussianBlur stdDeviation="12"/>
<feComposite in2="hardAlpha" operator="out"/>
<feColorMatrix type="matrix" values="0 0 0 0 0.0916667 0 0 0 0 0.0916667 0 0 0 0 0.0916667 0 0 0 0.32 0"/>
<feBlend mode="normal" in2="effect1_backgroundBlur_10_7146" result="effect2_dropShadow_10_7146"/>
<feColorMatrix in="SourceAlpha" type="matrix" values="0 0 0 0 0 0 0 0 0 0 0 0 0 0 0 0 0 0 127 0" result="hardAlpha"/>
<feOffset dy="4"/>
<feGaussianBlur stdDeviation="2"/>
<feComposite in2="hardAlpha" operator="out"/>
<feColorMatrix type="matrix" values="0 0 0 0 0.0901961 0 0 0 0 0.0901961 0 0 0 0 0.0901961 0 0 0 0.2 0"/>
<feBlend mode="normal" in2="effect2_dropShadow_10_7146" result="effect3_dropShadow_10_7146"/>
<feBlend mode="normal" in="SourceGraphic" in2="effect3_dropShadow_10_7146" result="shape"/>
</filter>
</defs>
</svg>
