<svg width="33" height="32" viewBox="0 0 33 32" fill="none" xmlns="http://www.w3.org/2000/svg">
<circle cx="16.4993" cy="16.0003" r="13.3333" fill="white"/>
<path fill-rule="evenodd" clip-rule="evenodd" d="M32.5 16C32.5 24.8365 25.3365 32 16.5 32C7.66347 32 0.5 24.8365 0.5 16C0.5 7.16347 7.66347 0 16.5 0C25.3365 0 32.5 7.16347 32.5 16ZM11.2143 14.5343C9.61153 15.2341 7.96473 15.9532 6.45883 16.7827C5.67251 17.3584 6.71759 17.7657 7.69807 18.1477C7.85393 18.2084 8.00813 18.2685 8.15313 18.3285C8.2738 18.3656 8.39647 18.4047 8.5208 18.4443C9.61127 18.7917 10.8271 19.1791 11.8858 18.5963C13.6249 17.5973 15.266 16.4424 16.9059 15.2883C17.4432 14.9102 17.9803 14.5322 18.5207 14.1598C18.5461 14.1436 18.5746 14.1251 18.6059 14.1049C19.0662 13.8064 20.1016 13.1353 19.7186 14.0601C18.813 15.0505 17.8429 15.9271 16.8677 16.8087C16.2103 17.4027 15.5506 17.999 14.9066 18.6337C14.3457 19.0894 13.7633 20.0059 14.3913 20.6441C15.8379 21.6567 17.3071 22.6449 18.7755 23.6325C19.2533 23.9538 19.7311 24.2751 20.2079 24.5973C21.016 25.2425 22.279 24.7205 22.4567 23.7123C22.5357 23.2485 22.615 22.7848 22.6943 22.321C23.1327 19.7579 23.5713 17.1938 23.9587 14.6223C24.0113 14.2189 24.071 13.8156 24.1307 13.4121C24.2755 12.434 24.4204 11.4547 24.4657 10.4714C24.349 9.49007 23.1591 9.70587 22.497 9.92653C19.0935 11.2216 15.7241 12.6127 12.3679 14.0283C11.9877 14.1967 11.6023 14.3649 11.2143 14.5343Z" fill="#4D4D4D"/>
</svg>
