<svg width="33" height="32" viewBox="0 0 33 32" fill="none" xmlns="http://www.w3.org/2000/svg">
<circle cx="16.4993" cy="16.0003" r="13.3333" fill="white"/>
<path fill-rule="evenodd" clip-rule="evenodd" d="M0.5 16C0.5 7.16344 7.66344 0 16.5 0C25.3366 0 32.5 7.16344 32.5 16C32.5 24.8366 25.3366 32 16.5 32C7.66344 32 0.5 24.8366 0.5 16ZM17.3371 21.2508C17.3371 21.2508 17.6451 21.2172 17.8029 21.0509C17.9473 20.8985 17.9423 20.6109 17.9423 20.6109C17.9423 20.6109 17.9231 19.2679 18.5583 19.0696C19.1844 18.8746 19.9882 20.3683 20.8413 20.9427C21.4857 21.377 21.9749 21.2819 21.9749 21.2819L24.2545 21.2508C24.2545 21.2508 25.4465 21.1787 24.8814 20.2585C24.8347 20.1831 24.5517 19.5776 23.1869 18.3338C21.757 17.0319 21.949 17.2424 23.6702 14.99C24.7186 13.6184 25.1377 12.781 25.0066 12.4229C24.8822 12.0804 24.1109 12.1714 24.1109 12.1714L21.545 12.1869C21.545 12.1869 21.3547 12.1615 21.2136 12.2443C21.0759 12.3254 20.9866 12.5147 20.9866 12.5147C20.9866 12.5147 20.5809 13.5758 20.0391 14.4787C18.8964 16.3829 18.4398 16.4837 18.2528 16.3657C17.8179 16.0896 17.9264 15.2579 17.9264 14.6672C17.9264 12.8211 18.2119 12.0517 17.3713 11.8526C17.0925 11.7862 16.8872 11.7428 16.1735 11.7354C15.2578 11.7264 14.4832 11.7387 14.0441 11.9493C13.7519 12.0894 13.5266 12.4024 13.6643 12.4204C13.8337 12.4426 14.2177 12.522 14.4214 12.7941C14.6843 13.1456 14.6751 13.9338 14.6751 13.9338C14.6751 13.9338 14.8262 16.1068 14.3221 16.3764C13.9765 16.5615 13.5023 16.1838 12.4831 14.4558C11.9614 13.5708 11.5674 12.5925 11.5674 12.5925C11.5674 12.5925 11.4915 12.4098 11.3554 12.3115C11.191 12.1927 10.9614 12.1558 10.9614 12.1558L8.52318 12.1714C8.52318 12.1714 8.15673 12.1812 8.02234 12.3377C7.90297 12.4762 8.01316 12.7638 8.01316 12.7638C8.01316 12.7638 9.92219 17.1482 12.0841 19.358C14.0666 21.3835 16.3171 21.2508 16.3171 21.2508H17.3371Z" fill="#4D4D4D"/>
</svg>
